<?xml version="1.0" encoding="UTF-8"?>
<svg width="220px" height="64px" viewBox="0 0 220 64" version="1.1" xmlns="http://www.w3.org/2000/svg" xmlns:xlink="http://www.w3.org/1999/xlink">
    <!-- Generator: Sketch 51.1 (57501) - http://www.bohemiancoding.com/sketch -->
    <title>Page 1</title>
    <desc>Created with Sketch.</desc>
    <defs>
        <polygon id="path-1" points="0 0.22804 40.5280474 0.22804 40.5280474 53.33524 0 53.33524"></polygon>
        <polygon id="path-3" points="0.236710383 0.3036 66.2467286 0.3036 66.2467286 62.67552 0.236710383 62.67552"></polygon>
    </defs>
    <g id="Symbols" stroke="none" stroke-width="1" fill="none" fill-rule="evenodd">
        <g id="Footer" transform="translate(-608.000000, -252.000000)">
            <g id="Page-1" transform="translate(608.000000, 252.000000)">
                <g id="Group-3" transform="translate(0.000000, 7.296400)">
                    <mask id="mask-2" fill="white">
                        <use xlink:href="#path-1"></use>
                    </mask>
                    <g id="Clip-2"></g>
                    <path d="M24.8291038,11.70684 C25.8361348,10.60884 26.4564627,9.15204 26.4564627,7.55004 C26.4564627,6.50684 26.1935847,5.52484 25.7335483,4.66284 C28.7670638,5.57884 33.1574463,6.39764 39.1667723,6.39764 L24.8291038,11.70684 Z M31.8222186,20.55804 L31.799377,20.75804 C31.799377,20.75804 31.9091767,20.95524 31.4471366,20.88804 C31.4471366,20.88804 30.3202878,21.00124 29.8562441,21.46284 C29.8562441,21.46284 31.846663,20.93404 31.799377,21.48844 C31.799377,21.48844 31.8879381,21.86004 31.5785756,22.03604 C31.5785756,22.03604 29.3493224,22.17044 29.2375191,22.49724 C29.2375191,22.49724 30.6280474,22.17044 31.225133,22.52164 C31.225133,22.52164 31.7120182,23.07204 29.4611257,23.33644 C29.4611257,23.33644 27.9808342,23.29044 27.8245501,25.03124 C27.8245501,25.03124 27.8702332,26.90644 28.1351148,26.11204 C28.1351148,26.11204 28.664878,25.05724 28.7983206,25.40724 C28.7983206,25.40724 29.2194863,26.20044 29.0399599,26.33204 C29.0399599,26.33204 28.4873552,27.34804 28.664878,28.02844 C28.664878,28.02844 29.0399599,26.41924 29.3493224,26.83764 L29.6126011,27.52244 C29.6126011,27.52244 29.150561,28.84604 29.3693588,29.30764 C29.3693588,29.30764 29.5272459,28.29284 29.7672823,28.27124 C29.7672823,28.27124 29.9664444,28.05124 30.1640036,28.73764 C30.1640036,28.73764 30.5851694,29.22044 30.1884481,29.61324 C30.1884481,29.61324 29.8790856,30.60804 30.6953698,32.19324 C30.6953698,32.19324 32.9029836,35.96204 30.0782477,37.39404 C30.0782477,37.39404 28.0894317,38.49604 26.8323461,36.04884 L26.7698324,35.90524 C26.8079016,36.26844 26.7782477,36.68284 26.6163534,37.13844 C26.6163534,37.13844 24.5526011,39.96604 28.6252058,39.86684 C28.6252058,39.86684 29.2743862,39.88204 29.6358434,39.71844 C29.6358434,39.71844 29.9343862,39.66964 29.7183934,40.06844 C29.7183934,40.06844 29.7829107,40.52844 29.3020364,40.59564 C29.3020364,40.59564 28.8167541,40.78684 28.6252058,41.00844 C28.5025829,41.15644 29.0908525,41.02364 29.2743862,40.95804 C29.2743862,40.95804 29.4106339,40.79724 29.5272459,41.27564 C29.5577013,41.39044 29.7047687,41.69604 28.7245865,41.81084 C28.7245865,41.81084 28.0649872,42.00164 28.3434936,42.00164 C28.3434936,42.00164 28.5606885,41.97284 28.7586485,42.03564 C28.7586485,42.03564 28.954204,42.14844 28.6252058,42.44484 C28.6252058,42.44484 28.5258251,42.62084 28.0649872,42.76124 C28.0649872,42.76124 27.6975191,42.89444 27.5348233,42.97364 L28.0726011,42.96604 C28.0726011,42.96604 28.2268816,43.29604 28.0128925,43.54404 C27.8794499,43.69524 27.9624007,43.72884 27.2242587,43.90324 C27.2242587,43.90324 26.5245865,44.08004 26.9854244,44.03124 C26.9854244,44.03124 27.5640765,43.91524 27.1841858,44.29884 C26.8046958,44.67324 26.0268816,44.92684 25.7772277,44.90684 C25.7772277,44.90684 25.3652787,44.79404 24.7361348,45.33524 C24.7361348,45.33524 24.6688124,45.52284 24.8359162,45.50324 C24.8359162,45.50324 25.513949,45.63764 25.7283388,45.91564 C25.7283388,45.91564 25.8922368,46.05004 25.7131111,46.33124 L25.1649144,47.19204 C25.1649144,47.19204 25.0026193,47.19204 24.886408,47.00844 C24.886408,47.00844 24.1069909,46.09924 22.8807614,46.67684 C22.8807614,46.67684 22.2343862,47.00844 21.8701239,47.86604 C21.8701239,47.86604 21.8364627,48.13164 21.3415628,47.86604 C21.3415628,47.86604 20.5288852,47.48684 20.7797413,47.15364 L21.2253515,46.46164 C21.2253515,46.46164 21.4060801,46.24724 21.0602514,46.38044 C21.0602514,46.38044 20.3649872,46.64324 20.2808342,46.80964 C20.2808342,46.80964 20.1522004,46.89404 20.1017086,46.62804 C20.1017086,46.62804 19.8841129,45.60404 20.1017086,45.52284 C20.1017086,45.52284 20.6466995,45.32124 20.9620729,45.25564 C20.9620729,45.25564 21.2590128,45.15764 20.9436393,45.02484 C20.9436393,45.02484 20.546918,44.85644 20.3954426,44.89164 C20.3954426,44.89164 20.1185392,44.89164 20.5132568,44.36284 C20.5132568,44.36284 20.8779199,43.65244 21.3415628,43.91524 C21.3415628,43.91524 22.6984299,44.98964 23.1620729,44.58164 C23.1620729,44.58164 25.4313989,43.33884 25.9611621,41.95124 C25.9611621,41.95124 26.4909253,40.56364 24.4391949,40.75924 C24.4391949,40.75924 23.5435665,40.82324 22.649541,41.60284 C22.649541,41.60284 22.2175556,41.90244 21.8961712,41.84884 L21.5791949,41.78924 L21.5531475,41.78004 L21.5363169,41.77564 C21.5363169,41.77564 21.4798142,41.78004 21.3279381,41.67484 C21.3279381,41.67484 21.1672459,41.56924 21.161235,41.32484 C21.1536211,41.07884 21.3235301,40.18924 21.3648051,39.91124 C21.4044772,39.64404 21.4601785,37.80604 23.398102,35.41884 C19.5551148,34.61684 19.1263352,36.16364 19.1263352,36.16364 C18.3136576,38.69604 21.0265902,39.70764 21.0265902,39.70764 C21.4689945,39.86204 20.5397049,40.12364 20.5397049,40.12364 C20.1021093,40.25644 19.785133,40.12044 19.785133,40.12044 C19.0990856,40.02564 19.8921275,40.29924 19.8921275,40.29924 C19.836827,40.44124 19.7450601,40.53284 19.7450601,40.53284 C19.3992313,40.91364 18.7897231,40.54964 18.7897231,40.54964 C18.2062623,40.32524 18.5997778,40.54684 18.5997778,40.54684 C18.7528561,40.65684 18.6214171,40.78964 18.6214171,40.78964 C18.3320911,41.20724 17.6504517,40.73164 17.6504517,40.73164 C17.3671366,40.48884 17.4929654,40.65804 17.4929654,40.65804 C17.6091767,40.87084 17.4284481,40.98684 17.4284481,40.98684 C17.1178834,41.20724 16.3384663,40.57884 16.3384663,40.57884 L16.3965719,40.72084 L16.3476831,40.91804 C15.8820364,41.31564 14.82251,40.19364 14.82251,40.19364 L14.3159891,40.06084 C13.741745,40.06084 13.9605428,40.16924 13.9605428,40.16924 L14.7567905,41.14284 C15.0216721,41.49724 13.9192678,41.88724 13.9192678,41.88724 C13.6740219,42.06444 13.6099053,41.86724 13.6099053,41.86724 C13.4323825,41.14284 12.8368998,40.74404 12.8368998,40.74404 C12.042255,40.04244 10.806408,41.27284 10.806408,41.27284 L9.98892168,40.47644 C9.81300182,40.32524 10.7390856,39.77484 10.7390856,39.77484 C11.0941311,39.72764 10.8264444,39.57484 10.8264444,39.57484 L9.65671767,39.51044 L9.94604372,38.65004 C10.1207614,38.16724 10.2982842,38.25604 10.2982842,38.25604 L11.1802878,38.51724 C11.7328925,38.62724 10.7619271,37.83404 10.7619271,37.83404 C10.8937668,37.52684 11.7557341,37.21964 11.7557341,37.21964 C11.9088124,37.06524 12.9042222,38.49564 12.9042222,38.49564 C14.9575556,39.02324 16.0811985,38.69604 16.0811985,38.69604 C18.2904153,38.43004 16.8297596,36.09324 16.8297596,36.09324 C16.4134026,35.34444 15.2881566,35.28004 15.2881566,35.28004 C14.9787942,35.25724 14.8012714,34.70564 14.8012714,34.70564 L15.3081931,34.64004 C15.5911075,34.59564 15.5514353,34.37524 15.5514353,34.37524 C14.3817086,34.42284 14.5564262,34.10324 14.5564262,34.10324 C14.1613078,33.66004 14.6145319,33.58364 14.6145319,33.58364 C16.3384663,33.01044 16.9002878,32.89884 16.9002878,32.89884 C18.1557705,31.92684 20.4311075,32.39164 20.4311075,32.39164 C20.5589399,32.38004 21.8677195,32.72684 22.9440765,33.02044 C22.6832022,32.53964 22.3297596,32.11324 21.8500874,31.92084 C21.8500874,31.92084 21.450561,31.29284 20.4643679,31.45644 C20.4643679,31.45644 20.0772641,31.34004 19.9410164,31.02364 C19.9410164,31.02364 19.8580656,30.90924 19.9838944,30.74724 C19.9838944,30.74724 20.3205064,30.27484 19.7707067,30.71684 C19.7707067,30.71684 19.6392678,30.95964 19.2397413,30.71684 C19.2397413,30.71684 18.7740947,30.64324 19.218102,30.07164 L19.218102,29.98764 C19.0297596,29.98764 18.769286,30.28564 18.7388306,30.29044 C18.6254244,30.30084 18.2904153,30.29764 18.2904153,30.01204 C18.2904153,30.01204 18.4647322,29.39484 18.5997778,29.22044 C18.5997778,29.22044 18.7969362,28.91164 18.3132568,29.19764 C18.3132568,29.19764 17.1647687,29.74764 17.4941676,31.55444 C17.4941676,31.55444 17.1527468,31.62764 16.5953333,31.44884 L16.4041858,31.35524 C16.4041858,31.35524 16.479122,30.25644 16.2354791,31.31124 C16.2354791,31.31124 16.1481202,31.51924 15.6997049,31.31284 C15.6997049,31.31284 15.4592678,31.24244 15.4760984,31.06524 C15.4760984,31.06524 15.5422186,30.18484 15.3077923,31.18124 C15.3077923,31.18124 14.9755883,31.26524 14.82251,31.18884 C14.7167177,31.13684 14.6141311,31.17204 14.6141311,30.89084 C14.6141311,30.89084 14.5223643,30.29164 14.3889217,31.06204 C14.3889217,31.06204 13.9845865,31.42284 13.3462259,30.76404 C13.3462259,30.76404 12.5700146,30.73964 12.3956976,31.09444 C12.3956976,31.09444 13.5882659,31.77404 13.4123461,31.99604 L12.8577377,32.59044 C12.8577377,32.59044 11.2259709,30.91684 9.8799235,33.03364 C9.8799235,33.03364 8.97347541,32.39324 9.2367541,31.92724 C9.2367541,31.92724 10.1067359,31.23164 9.85708197,31.15844 C9.85708197,31.15844 8.98750091,31.16764 8.59999636,31.40284 C8.59999636,31.40284 8.3763898,31.46724 8.46374863,30.91684 C8.46374863,30.91684 8.44210929,29.87924 8.7743133,29.99084 L9.59340255,30.05644 C9.59340255,30.05644 9.92280146,29.92324 9.46036066,29.70484 C9.46036066,29.70484 8.79755556,29.48164 9.14819308,29.30764 C9.14819308,29.30764 9.39303825,29.06444 9.92280146,28.73764 C9.92280146,28.73764 10.1219636,28.69004 10.320725,28.97764 C10.320725,28.97764 11.4231293,30.65084 13.6523825,28.75884 C13.6523825,28.75884 16.3705246,26.90644 16.8081202,26.94924 C16.8081202,26.94924 16.985643,26.57324 15.8403607,27.03644 C15.8403607,27.03644 15.5510346,27.17084 15.4424372,27.34804 C15.4424372,27.34804 15.2436758,27.49964 15.2665173,27.25804 C15.2665173,27.25804 15.0429107,24.08524 19.3956248,21.68444 C19.3956248,21.68444 21.4028743,20.53684 21.5146776,20.22924 C21.5146776,20.22924 21.6709617,20.05044 21.1916903,20.09924 C21.1916903,20.09924 20.2499781,20.03524 18.9732568,20.74724 C18.9732568,20.74724 18.7740947,20.96444 18.7420364,20.66484 C18.7420364,20.66484 18.6254244,19.73884 19.4677559,19.59044 C19.4677559,19.59044 21.1916903,19.77404 21.3583934,18.74844 C21.3583934,18.74844 21.5559526,18.08684 20.8122004,17.75484 C20.8122004,17.75484 20.5962077,17.50724 19.7707067,18.21804 C19.7707067,18.21804 19.2229107,18.89524 18.726408,18.43204 C18.726408,18.43204 18.4450965,18.13564 18.6254244,17.54084 C18.6254244,17.54084 18.4923825,17.19084 19.0237486,16.99404 C19.0237486,16.99404 19.4216721,16.88084 19.6208342,16.76324 C19.6208342,16.76324 21.9879381,15.72244 25.0330747,16.97884 C25.0330747,16.97884 25.546408,17.27684 24.8034572,17.70604 C24.8034572,17.70604 24.4544226,17.93844 24.7193042,18.00444 C24.7193042,18.00444 25.0330747,17.83604 25.4634572,20.08404 C25.4634572,20.08404 25.8112896,22.24964 25.5279745,22.43324 C25.5279745,22.43324 25.4790856,22.48204 25.3316175,22.23444 C25.3316175,22.23444 24.8679745,21.60644 24.7854244,21.43804 C24.7854244,21.43804 24.6215264,21.22604 24.769796,21.83724 C24.769796,21.83724 25.0194499,22.81244 25.4161712,23.25844 C25.4161712,23.25844 25.762,23.47404 25.181745,24.54684 C25.181745,24.54684 25.0839672,24.84644 24.8359162,24.43204 C24.8359162,24.43204 24.6030929,23.93564 24.390306,23.37604 C24.390306,23.37604 24.1911439,23.29044 24.3398142,24.33124 C24.3398142,24.33124 24.4544226,25.09244 24.685643,25.29124 C24.685643,25.29124 24.9032386,25.48804 24.3398142,26.00204 C24.3398142,26.00204 23.8909982,26.71244 23.8252787,26.16364 C23.8252787,26.16364 23.6108889,25.20884 23.6108889,24.94444 C23.6108889,24.94444 23.5099053,24.69524 23.3123461,25.57244 C23.3123461,25.57244 23.1789035,26.37924 23.2955155,26.89444 C23.2955155,26.89444 23.3948962,27.04404 23.029031,27.15884 C23.029031,27.15884 22.7825829,27.19404 23.3780656,28.11684 C23.3780656,28.11684 24.6475738,30.40804 25.925898,32.74484 C25.925898,32.74484 26.8784299,33.25044 27.5364262,35.39004 C27.5364262,35.39004 28.2224736,37.39404 29.7672823,36.66644 C29.7672823,36.66644 31.2479745,36.13924 30.3202878,33.45084 C30.3202878,33.45084 29.6799235,31.77404 28.443275,29.76924 C28.443275,29.76924 25.925898,25.60604 27.8918725,22.21284 C27.8918725,22.21284 29.0844408,20.24764 31.4010528,19.94204 C31.4010528,19.94204 31.9340219,19.74484 31.8222186,20.55804 Z M14.8237122,4.65444 C14.3612714,5.51884 14.0971913,6.50404 14.0971913,7.55004 C14.0971913,9.15884 14.7227286,10.62164 15.7373734,11.72124 L1.36123497,6.39764 C7.38899454,6.39764 11.7889945,5.57364 14.8237122,4.65444 Z M19.7606885,8.01524 L19.7606885,9.83124 C18.8682659,9.62604 18.1677923,8.91444 17.9830565,8.01524 L19.7606885,8.01524 Z M19.7606885,7.00804 L17.9990856,7.00804 C18.2026557,6.14004 18.8895046,5.45644 19.7606885,5.25644 L19.7606885,7.00804 Z M22.5942404,8.01524 C22.4075009,8.92404 21.6934026,9.64244 20.7865537,9.83884 L20.7865537,8.01524 L22.5942404,8.01524 Z M20.7865537,7.00804 L20.7865537,5.24924 C21.6721639,5.44044 22.3722368,6.13044 22.5782113,7.00804 L20.7865537,7.00804 Z M13.7024736,24.73044 C13.7024736,24.73044 13.4163534,24.66204 13.1037851,24.72284 C13.1037851,24.72284 12.7824007,24.34244 13.2159891,24.15924 L13.4131475,23.97724 C13.3458251,23.78924 12.693439,23.95564 12.693439,23.95564 C12.693439,23.95564 12.2907067,23.59364 12.6245137,23.35044 C12.6245137,23.35044 13.3518361,23.16564 12.9294681,23.06764 L12.4177377,23.00524 C12.4177377,23.00524 12.1945319,22.93644 12.2402149,22.69764 L12.4838579,21.88044 C12.6064809,21.73524 12.3291767,20.71404 11.9969727,20.84564 C11.9969727,20.84564 11.5116903,22.49764 10.9606885,21.83604 L10.4305246,21.24284 C10.4305246,21.24284 11.865133,20.09684 10.652929,18.92924 C10.652929,18.92924 10.0109617,18.59604 9.79216393,18.68764 C9.79216393,18.68764 9.65591621,18.40044 10.254204,17.56124 C10.254204,17.56124 10.3860437,17.40564 10.6280838,17.54124 C10.6280838,17.54124 11.4668087,18.02604 11.2908889,17.40564 C11.2908889,17.40564 11.026408,16.90124 10.872929,16.88124 C10.872929,16.88124 10.7811621,16.76964 11.026408,16.70244 C11.026408,16.70244 11.7320911,16.41484 11.9540947,16.45924 C11.9540947,16.45924 12.3824736,17.37644 12.5175191,17.20964 C12.6477559,17.04324 12.7162805,16.81244 12.7162805,16.61404 C12.7162805,16.61404 13.7421457,17.01284 13.8423279,17.40564 C13.8423279,17.40564 13.0685209,18.60964 13.3229836,19.80964 C13.3229836,19.80964 15.04251,22.67324 16.3909617,23.57684 C16.3909617,23.57684 16.6866995,23.65004 16.0387213,24.21884 C16.0387213,24.21884 15.2781384,25.36484 15.2120182,25.60804 C15.2120182,25.60804 13.6980656,25.47324 13.7193042,25.73644 C13.7193042,25.73644 13.0797413,25.14004 13.6107067,24.98884 C13.6107067,24.98884 14.1877559,24.79764 13.7024736,24.73044 Z M18.5440765,19.19564 C19.6340583,18.43164 20.134969,18.92964 20.134969,18.96324 C20.134969,18.96324 19.5487031,18.90684 18.84302,19.50284 C18.84302,19.50284 17.9377741,20.33884 16.7664444,19.85604 C16.7664444,19.85604 16.3913625,19.56844 16.854204,19.72444 C16.854204,19.72444 17.4508889,19.95364 18.5440765,19.19564 Z M25.457847,7.55004 C25.457847,10.23004 23.4049144,12.44004 20.7865537,12.69644 L20.7865537,10.40324 C22.0007614,10.19284 22.9568998,9.23084 23.1572641,8.01524 L24.3277923,8.01524 L24.3277923,7.00804 L23.1480474,7.00804 C22.925643,5.82324 21.9803242,4.89124 20.7865537,4.68444 L20.7865537,3.58764 L19.7606885,3.58764 L19.7606885,4.68884 C18.5813443,4.90524 17.6496503,5.83204 17.4296503,7.00804 L16.2130383,7.00804 L16.2130383,8.01524 L17.4200328,8.01524 C17.6187942,9.22164 18.5605064,10.17844 19.7606885,10.39884 L19.7606885,12.69604 C17.145133,12.43684 15.0954062,10.22804 15.0954062,7.55004 C15.0954062,6.23604 15.5931111,5.03884 16.4045865,4.12564 C18.3417086,3.41284 19.504623,2.72604 20.0091403,2.39164 C20.098102,2.38724 20.1862623,2.37844 20.276827,2.37844 C20.3581749,2.37844 20.4375191,2.38684 20.5176648,2.39044 C21.0249872,2.72604 22.1995228,3.42004 24.1610893,4.13884 C24.9653515,5.05044 25.457847,6.24244 25.457847,7.55004 Z M20.2688124,0.23244 L20.2688124,0.22804 L20.2640036,0.22804 L20.2611985,0.22804 L20.2611985,0.23244 C13.5594135,5.28644 -4.00728597e-05,4.90444 -4.00728597e-05,4.90444 L1.26946812,23.88004 C1.26946812,23.88004 1.63052459,46.16444 20.2503789,53.32764 L20.2503789,53.33524 L20.253184,53.33524 L20.2579927,53.33524 L20.2640036,53.33204 L20.2704153,53.33524 L20.2716175,53.33524 L20.2764262,53.33524 L20.2776284,53.33524 L20.2776284,53.32764 C38.8974827,46.16444 39.2605428,23.88004 39.2605428,23.88004 L40.5280474,4.90444 C40.5280474,4.90444 26.9701967,5.28644 20.2688124,0.23244 Z" id="Fill-1" fill="#FEFEFE" mask="url(#mask-2)"></path>
                </g>
                <g id="Group-6" transform="translate(41.275046, 0.096400)">
                    <mask id="mask-4" fill="white">
                        <use xlink:href="#path-3"></use>
                    </mask>
                    <g id="Clip-5"></g>
                    <path d="M60.1973297,0.30352 L60.1973297,1.65592 C49.8994062,2.73792 43.0401348,11.47832 36.3567832,18.42152 L27.8697523,27.43272 L46.1998798,47.62472 C51.7058907,53.66312 58.2085137,59.07352 66.2467286,61.32632 L65.7951075,62.67552 C50.0829399,61.41032 47.5551439,60.96392 39.0653078,51.67792 L20.6446157,31.66912 L35.1838506,15.89672 C44.6658907,5.26312 42.8578033,2.28712 36.8100073,1.65592 L36.8100073,0.30352 L60.1973297,0.30352 Z M19.3815191,46.81472 C19.6524117,56.09632 19.7425756,58.79992 31.3913552,60.24272 L31.3913552,61.59512 L0.236710383,61.59512 L0.236710383,60.24272 C11.0720109,58.79992 11.1641785,56.09632 11.435071,46.81472 L11.435071,15.08552 C11.1641785,5.80112 11.0720109,3.09432 0.236710383,1.65592 L0.236710383,0.30352 L28.9537231,0.30352 L28.9537231,1.65592 C19.7425756,3.09432 19.6524117,5.80112 19.3815191,15.08552 L19.3815191,46.81472 Z" id="Fill-4" fill="#FEFEFE" mask="url(#mask-4)"></path>
                </g>
                <path d="M108.436397,41.60732 C108.618729,47.79692 108.675231,49.60332 115.899166,50.56012 L115.899166,51.46012 L95.6759964,51.46012 L95.6759964,50.56012 C102.898328,49.60332 102.958036,47.79692 103.137162,41.60732 L103.137162,20.45692 C102.958036,14.26572 102.898328,12.46372 95.6759964,11.50252 L95.6759964,10.60212 L115.899166,10.60212 L115.899166,11.50252 C108.675231,12.46372 108.618729,14.26572 108.436397,20.45692 L108.436397,41.60732 Z" id="Fill-7" fill="#FEFEFE"></path>
                <path d="M163.276907,42.02744 L162.973556,20.09304 C162.914248,14.38944 161.349403,12.70344 154.54984,11.50224 L154.54984,10.60224 L170.981716,10.60224 L170.981716,11.50224 C166.830568,12.04184 166.04514,14.32664 165.565869,18.23304 C164.71953,24.84304 165.023683,39.32384 165.322226,52.42304 L164.541607,52.60344 C154.909694,41.24624 144.19341,30.72864 134.019311,19.79504 L134.019311,30.84944 C134.019311,45.75184 133.654648,48.81904 142.388128,50.56024 L142.388128,51.46024 L124.386998,51.46024 L124.386998,50.56024 C132.514175,49.71624 132.215632,44.19304 132.215632,30.54824 L132.215632,21.53904 C132.215632,15.52944 131.252281,13.18504 123.604776,11.50224 L123.604776,10.60224 L133.538437,10.60224 L163.276907,42.02744 Z" id="Fill-9" fill="#FEFEFE"></path>
                <path d="M217.572907,46.83368 L217.572907,47.73688 C211.131596,50.43768 206.196623,52.18608 199.392652,52.18608 C186.994911,52.18608 176.459756,44.67128 176.459756,31.51088 C176.459756,18.17488 188.137388,9.88088 200.719865,9.88088 C205.476914,9.88088 210.290867,10.72288 214.80788,12.22528 L214.562634,22.68048 L213.783217,22.68048 C212.27808,15.70968 207.462925,11.32048 200.179683,11.32048 C189.763545,11.32048 183.440047,19.25208 183.440047,29.29048 C183.440047,41.18688 191.929883,50.14248 203.910867,50.14248 C209.388827,50.14248 209.327916,48.69848 209.327916,44.79648 L209.327916,41.18688 C209.327916,34.51688 207.582342,33.79408 201.201942,33.01648 L201.201942,32.11328 L219.02114,32.11328 L219.02114,33.01648 C214.80788,33.85368 214.625548,35.53808 214.625548,39.26248 L214.625548,46.83368 L217.572907,46.83368 Z" id="Fill-11" fill="#FEFEFE"></path>
                <path d="M113.611807,57.56124 C113.611807,56.49004 113.541279,56.41964 113.022335,56.31564 L112.733009,56.25924 L112.755851,55.86644 C113.310058,55.88924 113.88871,55.90004 114.441716,55.90004 C115.007945,55.90004 115.574576,55.88924 116.130386,55.86644 L116.130386,56.25924 L115.85188,56.30484 C115.332536,56.39684 115.262408,56.49004 115.262408,57.56124 L115.262408,60.22524 C115.262408,61.57484 115.413883,63.06164 117.169876,63.06164 C118.647362,63.06164 119.098984,61.77004 119.098984,60.19164 L119.098984,58.79444 C119.098984,57.86244 119.053301,56.98524 118.924667,56.68404 C118.82208,56.44244 118.568018,56.37364 118.25545,56.31564 L117.943282,56.25924 L117.943282,55.86644 C118.568018,55.88924 119.018036,55.90004 119.491297,55.90004 C119.918474,55.90004 120.34565,55.88924 120.784849,55.86644 L120.784849,56.25924 L120.57647,56.30484 C120.276725,56.37364 120.056324,56.44244 119.953738,56.68404 C119.826306,56.98524 119.780623,57.86244 119.780623,58.79444 L119.780623,60.08764 C119.780623,61.16964 119.676434,62.16164 119.040878,62.86604 C118.532754,63.40884 117.690423,63.69604 116.753519,63.69604 C115.874721,63.69604 115.090495,63.55844 114.46616,63.04964 C113.865869,62.55444 113.611807,61.70164 113.611807,60.44404 L113.611807,57.56124 Z" id="Fill-13" fill="#FEFEFE"></path>
                <path d="M132.767155,61.55148 C132.767155,62.30188 132.767155,63.02788 132.791599,63.40868 C132.709049,63.54588 132.386062,63.67268 132.108758,63.67268 C132.096736,63.67268 131.715242,63.08468 131.173056,62.41668 L128.504605,59.11828 C127.835388,58.29948 127.454295,57.81468 127.245916,57.64348 C127.186208,57.75828 127.186208,57.95388 127.186208,58.38028 L127.186208,60.61788 C127.186208,61.55148 127.233894,62.41668 127.360925,62.72668 C127.463512,62.96988 127.731599,63.05068 128.030142,63.09668 L128.354332,63.14268 L128.354332,63.54588 C127.731599,63.52308 127.269158,63.51068 126.805115,63.51068 C126.379541,63.51068 125.952364,63.52308 125.512765,63.54588 L125.512765,63.14268 L125.708721,63.10748 C126.02129,63.05068 126.25251,62.96988 126.344277,62.72668 C126.471308,62.41668 126.506572,61.55148 126.506572,60.61788 L126.506572,57.68788 C126.506572,57.05348 126.494149,56.86868 126.425224,56.70828 C126.331854,56.51268 126.171162,56.37508 125.766827,56.31708 L125.442237,56.27108 L125.489923,55.86628 C126.031709,55.89068 126.610761,55.90148 127.083621,55.90148 C127.477137,55.90148 127.810944,55.89068 128.054587,55.86628 C128.170798,56.38588 128.920962,57.26308 129.960852,58.49628 L130.929814,59.63628 C131.438339,60.23708 131.773749,60.64068 132.039832,60.90508 C132.084313,60.79028 132.084313,60.59468 132.084313,60.38708 L132.084313,58.79588 C132.084313,57.86068 132.039832,56.99708 131.912801,56.68548 C131.808612,56.44388 131.55455,56.36108 131.242383,56.31708 L130.929814,56.27108 L130.929814,55.86628 C131.55455,55.89068 132.004568,55.90148 132.479432,55.90148 C132.906608,55.90148 133.321362,55.89068 133.772984,55.86628 L133.772984,56.27108 L133.563403,56.30468 C133.263257,56.35068 133.044459,56.44388 132.94027,56.68548 C132.813239,56.99708 132.767155,57.86068 132.767155,58.79588 L132.767155,61.55148 Z" id="Fill-15" fill="#FEFEFE"></path>
                <path d="M141.17953,61.82824 C141.17953,62.91184 141.250058,62.99304 141.779821,63.08464 L142.102809,63.14264 L142.091989,63.54624 C141.468856,63.52304 140.902627,63.51104 140.358838,63.51104 C139.80463,63.51104 139.22718,63.52304 138.604047,63.54624 L138.604047,63.14264 L138.927435,63.08464 C139.458801,62.99304 139.527326,62.91184 139.527326,61.82824 L139.527326,57.58424 C139.527326,56.50064 139.458801,56.41984 138.927435,56.32784 L138.604047,56.27144 L138.604047,55.86624 C139.22718,55.88904 139.80463,55.90144 140.358838,55.90144 C140.902627,55.90144 141.481279,55.88904 142.102809,55.86624 L142.102809,56.27144 L141.779821,56.32784 C141.250058,56.41984 141.17953,56.50064 141.17953,57.58424 L141.17953,61.82824 Z" id="Fill-17" fill="#FEFEFE"></path>
                <path d="M152.075301,60.65168 C151.485829,62.04688 151.174863,62.95808 150.909982,63.60288 C150.816612,63.66248 150.679162,63.69608 150.504444,63.69608 C150.364991,63.69608 150.260801,63.66248 150.193479,63.60288 C150.066448,63.29288 149.868889,62.68128 149.708197,62.29008 L147.835592,57.59648 C147.396393,56.48848 147.33949,56.46568 146.969217,56.37408 L146.506776,56.25928 L146.554062,55.86648 C147.143534,55.87728 147.525027,55.90048 148.124918,55.90048 C148.656284,55.90048 149.153989,55.88968 149.856867,55.86648 L149.868889,56.25928 L149.52306,56.32808 C149.314681,56.37408 149.233734,56.44288 149.233734,56.54648 C149.233734,56.64008 149.418871,57.12288 149.696175,57.81528 L150.712823,60.41008 C150.873115,60.83648 150.989727,61.10128 151.071075,61.29808 C151.162842,61.10128 151.300291,60.79088 151.440146,60.44368 L151.866922,59.36008 C152.156648,58.63448 152.641931,57.34168 152.779381,56.95008 C152.860729,56.73008 152.897596,56.60488 152.897596,56.53568 C152.897596,56.45328 152.860729,56.40928 152.583825,56.33888 L152.248415,56.25928 L152.294098,55.86648 C152.837887,55.88968 153.277086,55.90048 153.716685,55.90048 C154.108597,55.90048 154.456029,55.88968 154.789836,55.86648 L154.814281,56.25928 L154.512933,56.31608 C154.189545,56.37408 154.028852,56.47768 153.877377,56.71928 C153.623315,57.10008 153.31235,57.72208 152.918834,58.65728 L152.075301,60.65168 Z" id="Fill-19" fill="#FEFEFE"></path>
                <path d="M161.550729,58.89892 C161.550729,59.22172 161.56275,59.24612 161.873716,59.24612 L162.671566,59.24612 C163.271457,59.24612 163.410911,59.16492 163.52592,58.61172 L163.584026,58.32292 L164.012805,58.33332 C163.98796,58.70332 163.977541,59.11732 163.977541,59.55612 C163.977541,59.99492 163.98796,60.40892 164.012805,60.77892 L163.584026,60.78972 L163.52592,60.50212 C163.410911,59.94892 163.271457,59.85732 162.671566,59.85732 L161.873716,59.85732 C161.56275,59.85732 161.550729,59.86772 161.550729,60.21332 L161.550729,61.58572 C161.550729,62.11612 161.596412,62.48612 161.734262,62.68172 C161.886138,62.88932 162.104936,62.98132 162.94847,62.98132 C163.952696,62.98132 164.346612,62.94612 164.982168,61.64372 C165.073534,61.51692 165.36326,61.56292 165.408944,61.70172 C165.36326,62.30092 165.085956,63.23492 164.923661,63.54652 C164.311348,63.52372 163.202532,63.51132 162.255209,63.51132 L160.754481,63.51132 C160.19867,63.51132 159.633643,63.52372 158.767268,63.54652 L158.767268,63.14292 L159.310656,63.06212 C159.829599,62.98132 159.898525,62.91252 159.898525,61.85012 L159.898525,57.54932 C159.898525,56.50092 159.829599,56.43212 159.310656,56.32852 L159.02133,56.27012 L159.044171,55.86532 C159.58796,55.88972 160.152587,55.90052 160.707195,55.90052 L163.156849,55.90052 C163.894991,55.90052 164.55459,55.88972 164.704863,55.86532 C164.715282,56.05172 164.798233,56.88172 164.854736,57.65332 L164.427559,57.69932 C164.300528,57.29732 164.138233,56.95012 163.98796,56.78852 C163.769162,56.56972 163.423333,56.43212 162.8551,56.43212 L161.931821,56.43212 C161.550729,56.43212 161.550729,56.45532 161.550729,56.88172 L161.550729,58.89892 Z" id="Fill-21" fill="#FEFEFE"></path>
                <path d="M172.666259,59.23368 C172.666259,59.63728 172.69992,59.67248 173.382761,59.67248 C173.799118,59.67248 174.041158,59.56848 174.260357,59.34848 C174.456313,59.15248 174.676714,58.78448 174.676714,58.10408 C174.676714,57.06648 174.064,56.39728 173.162361,56.39728 C172.691104,56.39728 172.666259,56.43248 172.666259,56.98368 L172.666259,59.23368 Z M171.084583,57.76968 C171.084583,56.61568 171.060138,56.48888 170.574455,56.42008 L170.263891,56.37408 C170.147679,56.31608 170.147679,56.02728 170.287133,55.97088 C171.153508,55.91248 172.053945,55.86688 173.151541,55.86688 C174.134528,55.86688 174.97686,56.01648 175.416058,56.28248 C176.085275,56.67368 176.432707,57.25008 176.432707,57.98808 C176.432707,59.01528 175.739046,59.45208 175.20808,59.71808 L175.149574,59.97168 C175.913763,61.51688 176.38502,62.38208 176.941231,62.85408 C177.240976,63.09568 177.541122,63.16608 177.714638,63.17648 L177.761923,63.47608 C177.576386,63.55728 177.206113,63.58008 176.847862,63.58008 C175.786732,63.58008 175.11431,63.20088 174.607789,62.36968 C174.238718,61.75848 173.97063,61.19288 173.706149,60.58328 C173.567898,60.27128 173.382761,60.17968 173.093435,60.17968 C172.691104,60.17968 172.666259,60.20088 172.666259,60.43368 L172.666259,61.85168 C172.666259,62.91248 172.736787,62.99328 173.25573,63.08488 L173.567898,63.14168 L173.567898,63.54648 C172.954383,63.52208 172.423016,63.51128 171.870011,63.51128 C171.291359,63.51128 170.783235,63.52208 170.182944,63.54648 L170.182944,63.14168 L170.495111,63.08488 C171.014055,62.99328 171.084583,62.91248 171.084583,61.85168 L171.084583,57.76968 Z" id="Fill-23" fill="#FEFEFE"></path>
                <path d="M184.37074,63.6964 C183.308408,63.6964 182.64961,63.3956 182.407971,63.258 C182.185967,63.0044 182.035694,62.1744 182.035694,61.3904 C182.118645,61.2388 182.383526,61.2284 182.476495,61.3568 C182.708117,62.1056 183.481122,63.166 184.464109,63.166 C185.318463,63.166 185.711978,62.578 185.711978,62.0016 C185.711978,61.0664 184.83318,60.5132 184.139519,60.1676 C183.308408,59.7536 182.395548,59.0612 182.395548,57.918 C182.383526,56.6156 183.401377,55.7172 185.07522,55.7172 C185.457916,55.7172 185.931177,55.7632 186.391614,55.9008 C186.541887,55.948 186.646077,55.9696 186.785129,55.994 C186.877297,56.2476 186.993508,56.8712 186.993508,57.6428 C186.936605,57.7804 186.646077,57.7928 186.541887,57.6764 C186.345931,57.088 185.849428,56.2476 185.016714,56.2476 C184.254528,56.2476 183.839373,56.7428 183.839373,57.3188 C183.839373,57.8492 184.312233,58.3336 184.889683,58.6348 L185.65227,59.0368 C186.368772,59.4172 187.281632,60.0868 187.281632,61.3568 C187.281632,62.7736 186.11471,63.6964 184.37074,63.6964" id="Fill-25" fill="#FEFEFE"></path>
                <path d="M194.919199,61.82824 C194.919199,62.91184 194.989727,62.99304 195.51949,63.08464 L195.844481,63.14264 L195.831658,63.54624 C195.208925,63.52304 194.643898,63.51104 194.098506,63.51104 C193.545902,63.51104 192.96725,63.52304 192.344117,63.54624 L192.344117,63.14264 L192.667104,63.08464 C193.19847,62.99304 193.268998,62.91184 193.268998,61.82824 L193.268998,57.58424 C193.268998,56.50064 193.19847,56.41984 192.667104,56.32784 L192.344117,56.27144 L192.344117,55.86624 C192.96725,55.88904 193.545902,55.90144 194.098506,55.90144 C194.643898,55.90144 195.220947,55.88904 195.844481,55.86624 L195.844481,56.27144 L195.51949,56.32784 C194.989727,56.41984 194.919199,56.50064 194.919199,57.58424 L194.919199,61.82824 Z" id="Fill-27" fill="#FEFEFE"></path>
                <path d="M203.517271,56.76592 C203.517271,56.48952 203.517271,56.43152 203.240368,56.43152 L202.523865,56.43152 C201.679931,56.43152 201.436689,56.89272 201.090459,57.73352 C200.951406,57.80392 200.732608,57.78072 200.664885,57.63112 C200.905322,56.83472 200.963428,56.11952 201.044776,55.67032 L201.20667,55.61232 L201.367763,55.65952 C201.425869,55.85512 201.461133,55.90072 202.338729,55.90072 L206.636142,55.90072 C207.398729,55.90072 207.571843,55.88872 207.676033,55.64712 L207.827508,55.61232 L207.99902,55.69472 C207.882809,56.08432 207.802663,57.01952 207.827508,57.67672 L207.398729,57.71192 C207.202772,56.97392 207.040477,56.43152 206.174102,56.43152 L205.48004,56.43152 C205.203137,56.43152 205.167872,56.46512 205.167872,56.76592 L205.167872,61.85072 C205.167872,62.92352 205.238401,63.01672 205.757344,63.08552 L206.221388,63.14192 L206.221388,63.54552 C205.469621,63.52272 204.890969,63.51192 204.372026,63.51192 C203.817417,63.51192 203.215923,63.52272 202.408856,63.54552 L202.408856,63.14192 L202.9278,63.08552 C203.446743,63.02752 203.517271,62.92352 203.517271,61.85072 L203.517271,56.76592 Z" id="Fill-29" fill="#FEFEFE"></path>
                <path d="M216.803548,61.85088 C216.803548,62.92368 216.874077,63.01528 217.39302,63.08408 L217.85506,63.14368 L217.85506,63.54568 C217.104896,63.52288 216.538667,63.51208 215.982856,63.51208 C215.428248,63.51208 214.851199,63.52288 214.16996,63.54568 L214.16996,63.14368 L214.563475,63.08408 C215.082419,63.00488 215.151344,62.92368 215.151344,61.85088 L215.151344,61.27488 C215.151344,60.69688 215.140925,60.51368 214.84078,59.90208 L213.465479,57.06568 C213.234659,56.59208 213.13047,56.40848 212.724532,56.33968 L212.334222,56.27088 C212.22843,56.17768 212.240452,55.90088 212.379905,55.86608 C212.89925,55.89048 213.326026,55.90088 214.007264,55.90088 C214.711745,55.90088 215.301617,55.89048 215.694732,55.86608 L215.717974,56.27088 L215.324459,56.36288 C215.117683,56.40848 215.047155,56.45448 215.047155,56.46688 C215.047155,56.55848 215.105661,56.73088 215.348903,57.27368 L215.891089,58.50688 C216.063803,58.88728 216.284204,59.34888 216.422055,59.63608 C216.757464,59.07248 217.080452,58.40288 217.39302,57.81448 C217.832219,56.99688 217.994914,56.61648 217.994914,56.47728 C217.994914,56.40848 217.876699,56.36288 217.600998,56.31688 L217.334514,56.27088 L217.346936,55.86608 C217.809377,55.89048 218.224131,55.90088 218.640889,55.90088 C219.080488,55.90088 219.438339,55.89048 219.772146,55.86608 C219.911599,55.91168 219.911599,56.19008 219.819432,56.27088 L219.517683,56.32768 C219.311308,56.36288 219.090907,56.44248 218.963876,56.60408 C218.790761,56.82288 218.501435,57.23848 217.947228,58.24248 L217.219905,59.55688 C216.91976,60.09928 216.803548,60.38688 216.803548,61.04368 L216.803548,61.85088 Z" id="Fill-31" fill="#FEFEFE"></path>
            </g>
        </g>
    </g>
</svg>